<svg xmlns="http://www.w3.org/2000/svg" viewBox="0 0 48 48">
  <path fill="#1976D2" d="M28 13h14v22H28z"/>
  <path fill="#2196F3" d="M42 13l-7 8-7-8h14zM28 35l7-8 7 8H28z"/>
  <path fill="#1E88E5" d="M42 13v22l-7-8V21z"/>
  <path fill="#1565C0" d="M28 13v22l7-8V21z"/>
  <path fill="#0D47A1" d="M4 10l22-4v36L4 38c-1.1 0-2-.9-2-2V12c0-1.1.9-2 2-2z"/>
  <path fill="#fff" d="M15 19.5c-3.04 0-5.5 2.46-5.5 5.5s2.46 5.5 5.5 5.5 5.5-2.46 5.5-5.5-2.46-5.5-5.5-5.5zm0 9c-1.93 0-3.5-1.57-3.5-3.5s1.57-3.5 3.5-3.5 3.5 1.57 3.5 3.5-1.57 3.5-3.5 3.5z"/>
</svg>
